<svg width="379" height="96" viewBox="0 0 379 96" fill="none" xmlns="http://www.w3.org/2000/svg">
<rect width="379" height="96" rx="12" fill="#C42E00"/>
<path d="M73.7188 70H57.0312L54.9688 60.5938H44L42.0312 70H30.75L42 25.8125H61.5625L73.7188 70ZM49.625 32.6875L45.3438 53.2812H54.2812L50.5938 32.6875H49.625ZM79.375 25.8125H92.9062L109.719 48V25.8125H120.406V70H106.531L89.9688 46.5V70H79.375V25.8125ZM152.844 70.9062C150.552 70.9062 148.365 70.6458 146.281 70.125C144.198 69.625 142.26 68.8958 140.469 67.9375C138.677 66.9792 137.052 65.8125 135.594 64.4375C134.156 63.0625 132.917 61.5104 131.875 59.7812C130.854 58.0521 130.062 56.1667 129.5 54.125C128.938 52.0833 128.656 49.9062 128.656 47.5938C128.656 44.2188 129.323 41.1458 130.656 38.375C132.01 35.5833 133.885 33.1979 136.281 31.2188C138.698 29.2188 141.562 27.6771 144.875 26.5938C148.208 25.5104 151.865 24.9688 155.844 24.9688C157.99 24.9688 160.26 25.1354 162.656 25.4688C165.052 25.7812 167.448 26.2917 169.844 27L167.844 37C165.698 36.2292 163.74 35.6979 161.969 35.4062C160.198 35.0938 158.49 34.9375 156.844 34.9375C154.656 34.9375 152.688 35.25 150.938 35.875C149.188 36.4792 147.698 37.3333 146.469 38.4375C145.24 39.5417 144.292 40.8854 143.625 42.4688C142.979 44.0312 142.656 45.7604 142.656 47.6562C142.656 49.7604 142.875 51.6354 143.312 53.2812C143.75 54.9271 144.427 56.3229 145.344 57.4688C146.26 58.6146 147.417 59.4896 148.812 60.0938C150.229 60.6979 151.906 61 153.844 61H157.844V51.8438L150.844 52.7812V45H169.844V66.125C168.302 67.0417 166.812 67.8125 165.375 68.4375C163.938 69.0417 162.521 69.5312 161.125 69.9062C159.729 70.2604 158.344 70.5104 156.969 70.6562C155.615 70.8229 154.24 70.9062 152.844 70.9062ZM199.438 70.9062C196.333 70.9062 193.542 70.4583 191.062 69.5625C188.604 68.6458 186.51 67.2812 184.781 65.4688C183.052 63.6354 181.729 61.3438 180.812 58.5938C179.896 55.8438 179.438 52.625 179.438 48.9375V25.8125H193.438V49C193.438 51.0625 193.542 52.8958 193.75 54.5C193.958 56.1042 194.312 57.4688 194.812 58.5938C195.312 59.6979 195.979 60.5417 196.812 61.125C197.646 61.7083 198.688 62 199.938 62C201.312 62 202.417 61.7083 203.25 61.125C204.104 60.5417 204.76 59.6979 205.219 58.5938C205.698 57.4688 206.021 56.1042 206.188 54.5C206.354 52.8958 206.438 51.0625 206.438 49V25.8125H218.125V48.9375C218.125 52.6458 217.76 55.875 217.031 58.625C216.302 61.375 215.167 63.6667 213.625 65.5C212.104 67.3125 210.167 68.6667 207.812 69.5625C205.479 70.4583 202.688 70.9062 199.438 70.9062ZM228.812 25.8125H242.812V61H257.812V70H228.812V25.8125ZM302.719 70H286.031L283.969 60.5938H273L271.031 70H259.75L271 25.8125H290.562L302.719 70ZM278.625 32.6875L274.344 53.2812H283.281L279.594 32.6875H278.625ZM308.375 25.8125H328.25C331.396 25.8125 334.167 26.2292 336.562 27.0625C338.958 27.875 340.948 28.9583 342.531 30.3125C344.135 31.6458 345.344 33.1667 346.156 34.875C346.969 36.5625 347.375 38.2708 347.375 40C347.375 41.3542 347.24 42.6979 346.969 44.0312C346.698 45.3438 346.219 46.5938 345.531 47.7812C344.844 48.9479 343.896 50.0104 342.688 50.9688C341.5 51.9062 339.979 52.6667 338.125 53.25C338.396 54.125 338.854 55.2083 339.5 56.5C340.146 57.7917 340.896 59.1875 341.75 60.6875C342.604 62.1875 343.521 63.7396 344.5 65.3438C345.479 66.9479 346.438 68.5 347.375 70H331.375C330.479 67.9792 329.562 65.7188 328.625 63.2188C327.688 60.6979 326.938 57.9583 326.375 55H322.375V70H308.375V25.8125ZM324.75 48C326.333 48 327.667 47.7917 328.75 47.375C329.854 46.9583 330.75 46.4167 331.438 45.75C332.125 45.0833 332.615 44.3333 332.906 43.5C333.219 42.6667 333.375 41.8333 333.375 41C333.375 39.3542 333.146 38.0104 332.688 36.9688C332.229 35.9271 331.604 35.1146 330.812 34.5312C330.021 33.9271 329.104 33.5208 328.062 33.3125C327.021 33.1042 325.906 33 324.719 33H322.375V48H324.75Z" fill="white"/>
</svg>
