<svg width="291" height="96" viewBox="0 0 291 96" fill="none" xmlns="http://www.w3.org/2000/svg">
<rect width="291" height="96" rx="12" fill="#0A7FEB"/>
<path d="M63.0312 48C63.0312 44.4375 63.6667 41.2396 64.9375 38.4062C66.2292 35.5521 67.9688 33.1354 70.1562 31.1562C72.3438 29.1562 74.8854 27.625 77.7812 26.5625C80.6771 25.5 83.75 24.9688 87 24.9688C89.2708 24.9688 91.5833 25.1875 93.9375 25.625C96.2917 26.0625 98.6354 26.8542 100.969 28L99.0312 38C97.1979 37 95.3854 36.25 93.5938 35.75C91.8021 35.25 90.1562 35 88.6562 35C86.8438 35 85.2188 35.3021 83.7812 35.9062C82.3438 36.4896 81.125 37.3438 80.125 38.4688C79.125 39.5938 78.3542 40.9583 77.8125 42.5625C77.2917 44.1667 77.0312 45.9792 77.0312 48C77.0312 50.0208 77.2917 51.8333 77.8125 53.4375C78.3542 55.0417 79.125 56.4062 80.125 57.5312C81.125 58.6562 82.3438 59.5208 83.7812 60.125C85.2188 60.7083 86.8438 61 88.6562 61C90.1562 61 91.8021 60.75 93.5938 60.25C95.3854 59.75 97.1979 59 99.0312 58L100.969 68C98.6354 69.125 96.2917 69.8854 93.9375 70.2812C91.5833 70.6979 89.2708 70.9062 87 70.9062C83.75 70.9062 80.6771 70.3854 77.7812 69.3438C74.8854 68.2812 72.3438 66.7708 70.1562 64.8125C67.9688 62.8333 66.2292 60.4271 64.9375 57.5938C63.6667 54.7604 63.0312 51.5625 63.0312 48ZM142.875 37.2812C142.021 36.9062 141.021 36.5312 139.875 36.1562C138.75 35.7604 137.562 35.4062 136.312 35.0938C135.083 34.7812 133.833 34.5312 132.562 34.3438C131.292 34.1354 130.094 34.0312 128.969 34.0312C127.01 34.0312 125.479 34.2812 124.375 34.7812C123.271 35.2812 122.719 36.125 122.719 37.3125C122.719 37.875 122.906 38.375 123.281 38.8125C123.677 39.2292 124.229 39.625 124.938 40C125.646 40.3542 126.49 40.7083 127.469 41.0625C128.469 41.3958 129.573 41.75 130.781 42.125L133.062 42.8438C134.979 43.4271 136.698 44.1354 138.219 44.9688C139.74 45.7812 141.021 46.75 142.062 47.875C143.125 48.9792 143.938 50.25 144.5 51.6875C145.062 53.125 145.344 54.7604 145.344 56.5938C145.344 58.7396 145 60.6979 144.312 62.4688C143.646 64.2188 142.594 65.7188 141.156 66.9688C139.719 68.2188 137.875 69.1875 135.625 69.875C133.396 70.5625 130.708 70.9062 127.562 70.9062C124.771 70.9062 121.99 70.6771 119.219 70.2188C116.469 69.7604 113.688 68.9583 110.875 67.8125V57.5C113.562 58.875 116.167 59.8854 118.688 60.5312C121.229 61.1562 123.729 61.4688 126.188 61.4688C128.208 61.4688 129.677 61.1458 130.594 60.5C131.531 59.8542 132 58.9583 132 57.8125C132 57.125 131.823 56.5417 131.469 56.0625C131.135 55.5625 130.583 55.1042 129.812 54.6875C129.062 54.2708 128.073 53.8542 126.844 53.4375C125.615 53 124.125 52.5104 122.375 51.9688C120.625 51.4479 119 50.7917 117.5 50C116.021 49.2083 114.74 48.2604 113.656 47.1562C112.573 46.0312 111.719 44.7292 111.094 43.25C110.49 41.7708 110.188 40.0833 110.188 38.1875C110.188 36.2292 110.531 34.4375 111.219 32.8125C111.906 31.1875 112.958 29.8021 114.375 28.6562C115.792 27.4896 117.583 26.5833 119.75 25.9375C121.938 25.2917 124.531 24.9688 127.531 24.9688C128.719 24.9688 129.979 25.0208 131.312 25.125C132.646 25.2292 134 25.3854 135.375 25.5938C136.771 25.8021 138.146 26.0729 139.5 26.4062C140.854 26.7396 142.135 27.1354 143.344 27.5938L142.875 37.2812ZM183.562 37.2812C182.708 36.9062 181.708 36.5312 180.562 36.1562C179.438 35.7604 178.25 35.4062 177 35.0938C175.771 34.7812 174.521 34.5312 173.25 34.3438C171.979 34.1354 170.781 34.0312 169.656 34.0312C167.698 34.0312 166.167 34.2812 165.062 34.7812C163.958 35.2812 163.406 36.125 163.406 37.3125C163.406 37.875 163.594 38.375 163.969 38.8125C164.365 39.2292 164.917 39.625 165.625 40C166.333 40.3542 167.177 40.7083 168.156 41.0625C169.156 41.3958 170.26 41.75 171.469 42.125L173.75 42.8438C175.667 43.4271 177.385 44.1354 178.906 44.9688C180.427 45.7812 181.708 46.75 182.75 47.875C183.812 48.9792 184.625 50.25 185.188 51.6875C185.75 53.125 186.031 54.7604 186.031 56.5938C186.031 58.7396 185.688 60.6979 185 62.4688C184.333 64.2188 183.281 65.7188 181.844 66.9688C180.406 68.2188 178.562 69.1875 176.312 69.875C174.083 70.5625 171.396 70.9062 168.25 70.9062C165.458 70.9062 162.677 70.6771 159.906 70.2188C157.156 69.7604 154.375 68.9583 151.562 67.8125V57.5C154.25 58.875 156.854 59.8854 159.375 60.5312C161.917 61.1562 164.417 61.4688 166.875 61.4688C168.896 61.4688 170.365 61.1458 171.281 60.5C172.219 59.8542 172.688 58.9583 172.688 57.8125C172.688 57.125 172.51 56.5417 172.156 56.0625C171.823 55.5625 171.271 55.1042 170.5 54.6875C169.75 54.2708 168.76 53.8542 167.531 53.4375C166.302 53 164.812 52.5104 163.062 51.9688C161.312 51.4479 159.688 50.7917 158.188 50C156.708 49.2083 155.427 48.2604 154.344 47.1562C153.26 46.0312 152.406 44.7292 151.781 43.25C151.177 41.7708 150.875 40.0833 150.875 38.1875C150.875 36.2292 151.219 34.4375 151.906 32.8125C152.594 31.1875 153.646 29.8021 155.062 28.6562C156.479 27.4896 158.271 26.5833 160.438 25.9375C162.625 25.2917 165.219 24.9688 168.219 24.9688C169.406 24.9688 170.667 25.0208 172 25.125C173.333 25.2292 174.688 25.3854 176.062 25.5938C177.458 25.8021 178.833 26.0729 180.188 26.4062C181.542 26.7396 182.823 27.1354 184.031 27.5938L183.562 37.2812ZM199.188 43C201.708 43 203.75 42.9167 205.312 42.75C206.896 42.5625 208.115 42.2917 208.969 41.9375C209.844 41.5625 210.427 41.1042 210.719 40.5625C211.031 40 211.188 39.3542 211.188 38.625C211.188 37.7708 211.01 37.0417 210.656 36.4375C210.302 35.8333 209.823 35.3438 209.219 34.9688C208.615 34.5938 207.917 34.3229 207.125 34.1562C206.333 33.9688 205.5 33.875 204.625 33.875C203.792 33.875 202.917 33.9271 202 34.0312C201.104 34.1354 200.198 34.2917 199.281 34.5C198.385 34.6875 197.5 34.9167 196.625 35.1875C195.75 35.4583 194.938 35.7604 194.188 36.0938V27.5938C196.146 26.6771 198.156 26.0208 200.219 25.625C202.302 25.2083 204.615 24.9896 207.156 24.9688C209.573 24.9896 211.698 25.1771 213.531 25.5312C215.365 25.8646 216.948 26.3333 218.281 26.9375C219.615 27.5417 220.719 28.25 221.594 29.0625C222.49 29.875 223.198 30.7604 223.719 31.7188C224.26 32.6771 224.635 33.6771 224.844 34.7188C225.073 35.7604 225.188 36.8125 225.188 37.875C225.188 39.4792 224.917 40.8438 224.375 41.9688C223.833 43.0938 223.156 44.0312 222.344 44.7812C221.531 45.5104 220.646 46.0833 219.688 46.5C218.75 46.8958 217.875 47.1875 217.062 47.375C218 47.5417 219 47.8229 220.062 48.2188C221.125 48.6146 222.104 49.1979 223 49.9688C223.917 50.7396 224.677 51.7292 225.281 52.9375C225.885 54.125 226.188 55.6042 226.188 57.375C226.188 58.5625 226.062 59.7188 225.812 60.8438C225.583 61.9688 225.177 63.0312 224.594 64.0312C224.031 65.0312 223.26 65.9583 222.281 66.8125C221.323 67.6458 220.115 68.3646 218.656 68.9688C217.219 69.5729 215.5 70.0417 213.5 70.375C211.521 70.7292 209.219 70.9062 206.594 70.9062C204.219 70.9062 202.031 70.7188 200.031 70.3438C198.031 69.9896 196.083 69.4167 194.188 68.625V59.7812C194.917 60.1146 195.719 60.4167 196.594 60.6875C197.469 60.9583 198.365 61.1979 199.281 61.4062C200.198 61.5938 201.115 61.7396 202.031 61.8438C202.948 61.9479 203.812 62 204.625 62C205.458 62 206.271 61.9062 207.062 61.7188C207.854 61.5312 208.552 61.2292 209.156 60.8125C209.781 60.3958 210.271 59.8542 210.625 59.1875C211 58.5208 211.188 57.6979 211.188 56.7188C211.188 55.8854 211.052 55.125 210.781 54.4375C210.51 53.7292 209.948 53.125 209.094 52.625C208.26 52.1042 207.052 51.7083 205.469 51.4375C203.906 51.1458 201.812 51 199.188 51V43Z" fill="white"/>
</svg>
