<svg width="291" height="96" viewBox="0 0 291 96" fill="none" xmlns="http://www.w3.org/2000/svg">
<rect width="291" height="96" rx="12" fill="#4E0AEB"/>
<path d="M44.25 25.8125H74.5V34H58.25V43.4375H72.5V52.4375H58.25V70H44.25V25.8125ZM81.75 25.8125H95.75V70H81.75V25.8125ZM128.188 70.9062C125.896 70.9062 123.708 70.6458 121.625 70.125C119.542 69.625 117.604 68.8958 115.812 67.9375C114.021 66.9792 112.396 65.8125 110.938 64.4375C109.5 63.0625 108.26 61.5104 107.219 59.7812C106.198 58.0521 105.406 56.1667 104.844 54.125C104.281 52.0833 104 49.9062 104 47.5938C104 44.2188 104.667 41.1458 106 38.375C107.354 35.5833 109.229 33.1979 111.625 31.2188C114.042 29.2188 116.906 27.6771 120.219 26.5938C123.552 25.5104 127.208 24.9688 131.188 24.9688C133.333 24.9688 135.604 25.1354 138 25.4688C140.396 25.7812 142.792 26.2917 145.188 27L143.188 37C141.042 36.2292 139.083 35.6979 137.312 35.4062C135.542 35.0938 133.833 34.9375 132.188 34.9375C130 34.9375 128.031 35.25 126.281 35.875C124.531 36.4792 123.042 37.3333 121.812 38.4375C120.583 39.5417 119.635 40.8854 118.969 42.4688C118.323 44.0312 118 45.7604 118 47.6562C118 49.7604 118.219 51.6354 118.656 53.2812C119.094 54.9271 119.771 56.3229 120.688 57.4688C121.604 58.6146 122.76 59.4896 124.156 60.0938C125.573 60.6979 127.25 61 129.188 61H133.188V51.8438L126.188 52.7812V45H145.188V66.125C143.646 67.0417 142.156 67.8125 140.719 68.4375C139.281 69.0417 137.865 69.5312 136.469 69.9062C135.073 70.2604 133.688 70.5104 132.312 70.6562C130.958 70.8229 129.583 70.9062 128.188 70.9062ZM154.781 25.8125H167.781L178.781 43L189.781 25.8125H203.094V70H188.781V46L178.469 63.4688H175.438L164.781 46V70H154.781V25.8125ZM251.75 70H235.062L233 60.5938H222.031L220.062 70H208.781L220.031 25.8125H239.594L251.75 70ZM227.656 32.6875L223.375 53.2812H232.312L228.625 32.6875H227.656Z" fill="white"/>
</svg>
