<svg width="399" height="96" viewBox="0 0 399 96" fill="none" xmlns="http://www.w3.org/2000/svg">
<rect width="399" height="96" rx="12" fill="#EB730A"/>
<path d="M41.9375 25.8125H72.1875V34H55.9375V43.4375H70.1875V52.4375H55.9375V70H41.9375V25.8125ZM79.4375 25.8125H93.4375V70H79.4375V25.8125ZM104.094 25.8125H123.969C127.115 25.8125 129.885 26.2292 132.281 27.0625C134.677 27.875 136.667 28.9583 138.25 30.3125C139.854 31.6458 141.062 33.1667 141.875 34.875C142.688 36.5625 143.094 38.2708 143.094 40C143.094 41.3542 142.958 42.6979 142.688 44.0312C142.417 45.3438 141.938 46.5938 141.25 47.7812C140.562 48.9479 139.615 50.0104 138.406 50.9688C137.219 51.9062 135.698 52.6667 133.844 53.25C134.115 54.125 134.573 55.2083 135.219 56.5C135.865 57.7917 136.615 59.1875 137.469 60.6875C138.323 62.1875 139.24 63.7396 140.219 65.3438C141.198 66.9479 142.156 68.5 143.094 70H127.094C126.198 67.9792 125.281 65.7188 124.344 63.2188C123.406 60.6979 122.656 57.9583 122.094 55H118.094V70H104.094V25.8125ZM120.469 48C122.052 48 123.385 47.7917 124.469 47.375C125.573 46.9583 126.469 46.4167 127.156 45.75C127.844 45.0833 128.333 44.3333 128.625 43.5C128.938 42.6667 129.094 41.8333 129.094 41C129.094 39.3542 128.865 38.0104 128.406 36.9688C127.948 35.9271 127.323 35.1146 126.531 34.5312C125.74 33.9271 124.823 33.5208 123.781 33.3125C122.74 33.1042 121.625 33 120.438 33H118.094V48H120.469ZM149.625 25.8125H180.625V34H163.625V43.3438H178.625V51.3438H163.625V61H180.625V70H149.625V25.8125ZM190.844 25.8125H205.719C207.01 25.8125 208.427 25.8646 209.969 25.9688C211.531 26.0521 213.094 26.2396 214.656 26.5312C216.219 26.8021 217.729 27.1979 219.188 27.7188C220.646 28.2188 221.938 28.8854 223.062 29.7188C224.208 30.5312 225.115 31.5417 225.781 32.75C226.469 33.9375 226.812 35.3542 226.812 37C226.812 37.9792 226.698 38.9583 226.469 39.9375C226.24 40.8958 225.823 41.7812 225.219 42.5938C224.635 43.4062 223.823 44.1146 222.781 44.7188C221.76 45.3229 220.448 45.75 218.844 46C220.594 46.1042 222.146 46.5104 223.5 47.2188C224.875 47.9062 226.031 48.7708 226.969 49.8125C227.906 50.8542 228.615 52.0104 229.094 53.2812C229.594 54.5312 229.844 55.7708 229.844 57C229.844 58.6458 229.51 60.25 228.844 61.8125C228.177 63.3542 227.052 64.7396 225.469 65.9688C223.906 67.1771 221.833 68.1562 219.25 68.9062C216.667 69.6354 213.458 70 209.625 70H190.844V25.8125ZM204.844 62H210.5C212.292 62 213.625 61.5417 214.5 60.625C215.396 59.6875 215.844 58.4792 215.844 57C215.844 56.125 215.688 55.375 215.375 54.75C215.083 54.125 214.531 53.6146 213.719 53.2188C212.906 52.8021 211.781 52.5 210.344 52.3125C208.927 52.1042 207.094 52 204.844 52V62ZM209.219 44C210.198 44 211.094 43.8646 211.906 43.5938C212.719 43.3021 213.417 42.9271 214 42.4688C214.583 42.0104 215.031 41.4792 215.344 40.875C215.677 40.2708 215.844 39.6458 215.844 39C215.844 38 215.646 37.1771 215.25 36.5312C214.854 35.8854 214.219 35.375 213.344 35C212.469 34.625 211.333 34.3646 209.938 34.2188C208.542 34.0729 206.844 34 204.844 34V44H209.219ZM277.25 70H260.562L258.5 60.5938H247.531L245.562 70H234.281L245.531 25.8125H265.094L277.25 70ZM253.156 32.6875L248.875 53.2812H257.812L254.125 32.6875H253.156ZM314.438 37.2812C313.583 36.9062 312.583 36.5312 311.438 36.1562C310.312 35.7604 309.125 35.4062 307.875 35.0938C306.646 34.7812 305.396 34.5312 304.125 34.3438C302.854 34.1354 301.656 34.0312 300.531 34.0312C298.573 34.0312 297.042 34.2812 295.938 34.7812C294.833 35.2812 294.281 36.125 294.281 37.3125C294.281 37.875 294.469 38.375 294.844 38.8125C295.24 39.2292 295.792 39.625 296.5 40C297.208 40.3542 298.052 40.7083 299.031 41.0625C300.031 41.3958 301.135 41.75 302.344 42.125L304.625 42.8438C306.542 43.4271 308.26 44.1354 309.781 44.9688C311.302 45.7812 312.583 46.75 313.625 47.875C314.688 48.9792 315.5 50.25 316.062 51.6875C316.625 53.125 316.906 54.7604 316.906 56.5938C316.906 58.7396 316.562 60.6979 315.875 62.4688C315.208 64.2188 314.156 65.7188 312.719 66.9688C311.281 68.2188 309.438 69.1875 307.188 69.875C304.958 70.5625 302.271 70.9062 299.125 70.9062C296.333 70.9062 293.552 70.6771 290.781 70.2188C288.031 69.7604 285.25 68.9583 282.438 67.8125V57.5C285.125 58.875 287.729 59.8854 290.25 60.5312C292.792 61.1562 295.292 61.4688 297.75 61.4688C299.771 61.4688 301.24 61.1458 302.156 60.5C303.094 59.8542 303.562 58.9583 303.562 57.8125C303.562 57.125 303.385 56.5417 303.031 56.0625C302.698 55.5625 302.146 55.1042 301.375 54.6875C300.625 54.2708 299.635 53.8542 298.406 53.4375C297.177 53 295.688 52.5104 293.938 51.9688C292.188 51.4479 290.562 50.7917 289.062 50C287.583 49.2083 286.302 48.2604 285.219 47.1562C284.135 46.0312 283.281 44.7292 282.656 43.25C282.052 41.7708 281.75 40.0833 281.75 38.1875C281.75 36.2292 282.094 34.4375 282.781 32.8125C283.469 31.1875 284.521 29.8021 285.938 28.6562C287.354 27.4896 289.146 26.5833 291.312 25.9375C293.5 25.2917 296.094 24.9688 299.094 24.9688C300.281 24.9688 301.542 25.0208 302.875 25.125C304.208 25.2292 305.562 25.3854 306.938 25.5938C308.333 25.8021 309.708 26.0729 311.062 26.4062C312.417 26.7396 313.698 27.1354 314.906 27.5938L314.438 37.2812ZM326.5 25.8125H357.5V34H340.5V43.3438H355.5V51.3438H340.5V61H357.5V70H326.5V25.8125Z" fill="white"/>
</svg>
