<svg width="179" height="96" viewBox="0 0 179 96" fill="none" xmlns="http://www.w3.org/2000/svg">
<rect width="179" height="96" rx="12" fill="#EB730A"/>
<path d="M62.6953 70.9062C60.4036 70.9062 58.2161 70.6458 56.1328 70.125C54.0494 69.625 52.1119 68.8958 50.3203 67.9375C48.5286 66.9792 46.9036 65.8125 45.4453 64.4375C44.0078 63.0625 42.7682 61.5104 41.7265 59.7812C40.7057 58.0521 39.914 56.1667 39.3515 54.125C38.789 52.0833 38.5078 49.9062 38.5078 47.5938C38.5078 44.2188 39.1744 41.1458 40.5078 38.375C41.8619 35.5833 43.7369 33.1979 46.1328 31.2188C48.5494 29.2188 51.414 27.6771 54.7265 26.5938C58.0599 25.5104 61.7161 24.9688 65.6953 24.9688C67.8411 24.9688 70.1119 25.1354 72.5078 25.4688C74.9036 25.7812 77.2994 26.2917 79.6953 27L77.6953 37C75.5494 36.2292 73.5911 35.6979 71.8203 35.4062C70.0494 35.0938 68.3411 34.9375 66.6953 34.9375C64.5078 34.9375 62.539 35.25 60.789 35.875C59.039 36.4792 57.5494 37.3333 56.3203 38.4375C55.0911 39.5417 54.1432 40.8854 53.4765 42.4688C52.8307 44.0312 52.5078 45.7604 52.5078 47.6562C52.5078 49.7604 52.7265 51.6354 53.164 53.2812C53.6015 54.9271 54.2786 56.3229 55.1953 57.4688C56.1119 58.6146 57.2682 59.4896 58.664 60.0938C60.0807 60.6979 61.7578 61 63.6953 61H67.6953V51.8438L60.6953 52.7812V45H79.6953V66.125C78.1536 67.0417 76.664 67.8125 75.2265 68.4375C73.789 69.0417 72.3724 69.5312 70.9765 69.9062C69.5807 70.2604 68.1953 70.5104 66.8203 70.6562C65.4661 70.8229 64.0911 70.9062 62.6953 70.9062ZM89.3203 25.8125H103.32V70H89.3203V25.8125ZM118.977 70V36H108.977V25.8125H143.195V36H132.977V70H118.977Z" fill="white"/>
</svg>
