<svg width="291" height="96" viewBox="0 0 291 96" fill="none" xmlns="http://www.w3.org/2000/svg">
<rect width="291" height="96" rx="12" fill="#EB730A"/>
<path d="M37.8125 25.8125H51.8125V43H64.8125V25.8125H78.8125V70H64.8125V52H51.8125V70H37.8125V25.8125ZM94.4688 70V36H84.4688V25.8125H118.688V36H108.469V70H94.4688ZM124.344 25.8125H137.344L148.344 43L159.344 25.8125H172.656V70H158.344V46L148.031 63.4688H145L134.344 46V70H124.344V25.8125ZM183.344 25.8125H197.344V61H212.344V70H183.344V25.8125ZM219.438 49.9375L222.438 25.8125H251.438L250.438 34.9375H232.438L230.438 44C231.146 43.3542 231.927 42.8333 232.781 42.4375C233.656 42.0417 234.542 41.7396 235.438 41.5312C236.354 41.3021 237.25 41.1562 238.125 41.0938C239 41.0312 239.812 41 240.562 41C242.417 41 244.219 41.3333 245.969 42C247.719 42.6667 249.26 43.6146 250.594 44.8438C251.948 46.0521 253.031 47.5208 253.844 49.25C254.656 50.9583 255.062 52.8646 255.062 54.9688C255.062 57.4062 254.667 59.6146 253.875 61.5938C253.083 63.5521 251.917 65.2292 250.375 66.625C248.833 68 246.927 69.0625 244.656 69.8125C242.385 70.5625 239.781 70.9375 236.844 70.9375C233.802 70.9375 231.188 70.5938 229 69.9062C226.833 69.2188 225.021 68.2812 223.562 67.0938C222.104 65.9062 220.958 64.5104 220.125 62.9062C219.312 61.2812 218.75 59.5312 218.438 57.6562H231.438C231.604 58.4062 231.854 59.0521 232.188 59.5938C232.542 60.1354 232.938 60.5833 233.375 60.9375C233.833 61.2917 234.323 61.5625 234.844 61.75C235.385 61.9167 235.938 62 236.5 62C237.229 62 237.948 61.8646 238.656 61.5938C239.365 61.3229 240 60.9271 240.562 60.4062C241.125 59.8646 241.573 59.2083 241.906 58.4375C242.26 57.6667 242.438 56.7917 242.438 55.8125C242.438 55.0208 242.333 54.2604 242.125 53.5312C241.917 52.7812 241.573 52.125 241.094 51.5625C240.635 51 240.042 50.5521 239.312 50.2188C238.583 49.8646 237.708 49.6875 236.688 49.6875C236.146 49.6875 235.583 49.7396 235 49.8438C234.417 49.9479 233.833 50.1042 233.25 50.3125C232.688 50.5208 232.156 50.7708 231.656 51.0625C231.156 51.3333 230.729 51.6458 230.375 52L219.438 49.9375Z" fill="white"/>
</svg>
