<svg width="453" height="96" viewBox="0 0 453 96" fill="none" xmlns="http://www.w3.org/2000/svg">
<rect width="453" height="96" rx="12" fill="#FFBB01"/>
<path d="M40.9688 70.9062C39.0729 70.9062 37.2396 70.7708 35.4688 70.5C33.7188 70.2292 32.2188 69.6979 30.9688 68.9062V60C32.3646 60.4375 33.6562 60.7188 34.8438 60.8438C36.0521 60.9479 37.0938 61 37.9688 61C38.9062 61 39.6354 60.8125 40.1562 60.4375C40.6979 60.0417 41.1042 59.5417 41.375 58.9375C41.6458 58.3333 41.8125 57.6562 41.875 56.9062C41.9375 56.1354 41.9688 55.375 41.9688 54.625V25.8125H55.9688V56.5938C55.9688 59.0938 55.5312 61.25 54.6562 63.0625C53.7812 64.8542 52.6354 66.3333 51.2188 67.5C49.8229 68.6667 48.2188 69.5208 46.4062 70.0625C44.6146 70.625 42.8021 70.9062 40.9688 70.9062ZM104.594 70H87.9062L85.8438 60.5938H74.875L72.9062 70H61.625L72.875 25.8125H92.4375L104.594 70ZM80.5 32.6875L76.2188 53.2812H85.1562L81.4688 32.6875H80.5ZM100.938 25.8125H117.938L124.375 58.7812L131.938 25.8125H142.938L130.969 70H111.938L100.938 25.8125ZM182.219 70H165.531L163.469 60.5938H152.5L150.531 70H139.25L150.5 25.8125H170.062L182.219 70ZM158.125 32.6875L153.844 53.2812H162.781L159.094 32.6875H158.125ZM219.406 37.2812C218.552 36.9062 217.552 36.5312 216.406 36.1562C215.281 35.7604 214.094 35.4062 212.844 35.0938C211.615 34.7812 210.365 34.5312 209.094 34.3438C207.823 34.1354 206.625 34.0312 205.5 34.0312C203.542 34.0312 202.01 34.2812 200.906 34.7812C199.802 35.2812 199.25 36.125 199.25 37.3125C199.25 37.875 199.438 38.375 199.812 38.8125C200.208 39.2292 200.76 39.625 201.469 40C202.177 40.3542 203.021 40.7083 204 41.0625C205 41.3958 206.104 41.75 207.312 42.125L209.594 42.8438C211.51 43.4271 213.229 44.1354 214.75 44.9688C216.271 45.7812 217.552 46.75 218.594 47.875C219.656 48.9792 220.469 50.25 221.031 51.6875C221.594 53.125 221.875 54.7604 221.875 56.5938C221.875 58.7396 221.531 60.6979 220.844 62.4688C220.177 64.2188 219.125 65.7188 217.688 66.9688C216.25 68.2188 214.406 69.1875 212.156 69.875C209.927 70.5625 207.24 70.9062 204.094 70.9062C201.302 70.9062 198.521 70.6771 195.75 70.2188C193 69.7604 190.219 68.9583 187.406 67.8125V57.5C190.094 58.875 192.698 59.8854 195.219 60.5312C197.76 61.1562 200.26 61.4688 202.719 61.4688C204.74 61.4688 206.208 61.1458 207.125 60.5C208.062 59.8542 208.531 58.9583 208.531 57.8125C208.531 57.125 208.354 56.5417 208 56.0625C207.667 55.5625 207.115 55.1042 206.344 54.6875C205.594 54.2708 204.604 53.8542 203.375 53.4375C202.146 53 200.656 52.5104 198.906 51.9688C197.156 51.4479 195.531 50.7917 194.031 50C192.552 49.2083 191.271 48.2604 190.188 47.1562C189.104 46.0312 188.25 44.7292 187.625 43.25C187.021 41.7708 186.719 40.0833 186.719 38.1875C186.719 36.2292 187.062 34.4375 187.75 32.8125C188.438 31.1875 189.49 29.8021 190.906 28.6562C192.323 27.4896 194.115 26.5833 196.281 25.9375C198.469 25.2917 201.062 24.9688 204.062 24.9688C205.25 24.9688 206.51 25.0208 207.844 25.125C209.177 25.2292 210.531 25.3854 211.906 25.5938C213.302 25.8021 214.677 26.0729 216.031 26.4062C217.385 26.7396 218.667 27.1354 219.875 27.5938L219.406 37.2812ZM229 48C229 44.4375 229.635 41.2396 230.906 38.4062C232.198 35.5521 233.938 33.1354 236.125 31.1562C238.312 29.1562 240.854 27.625 243.75 26.5625C246.646 25.5 249.719 24.9688 252.969 24.9688C255.24 24.9688 257.552 25.1875 259.906 25.625C262.26 26.0625 264.604 26.8542 266.938 28L265 38C263.167 37 261.354 36.25 259.562 35.75C257.771 35.25 256.125 35 254.625 35C252.812 35 251.188 35.3021 249.75 35.9062C248.312 36.4896 247.094 37.3438 246.094 38.4688C245.094 39.5938 244.323 40.9583 243.781 42.5625C243.26 44.1667 243 45.9792 243 48C243 50.0208 243.26 51.8333 243.781 53.4375C244.323 55.0417 245.094 56.4062 246.094 57.5312C247.094 58.6562 248.312 59.5208 249.75 60.125C251.188 60.7083 252.812 61 254.625 61C256.125 61 257.771 60.75 259.562 60.25C261.354 59.75 263.167 59 265 58L266.938 68C264.604 69.125 262.26 69.8854 259.906 70.2812C257.552 70.6979 255.24 70.9062 252.969 70.9062C249.719 70.9062 246.646 70.3854 243.75 69.3438C240.854 68.2812 238.312 66.7708 236.125 64.8125C233.938 62.8333 232.198 60.4271 230.906 57.5938C229.635 54.7604 229 51.5625 229 48ZM276.062 25.8125H295.938C299.083 25.8125 301.854 26.2292 304.25 27.0625C306.646 27.875 308.635 28.9583 310.219 30.3125C311.823 31.6458 313.031 33.1667 313.844 34.875C314.656 36.5625 315.062 38.2708 315.062 40C315.062 41.3542 314.927 42.6979 314.656 44.0312C314.385 45.3438 313.906 46.5938 313.219 47.7812C312.531 48.9479 311.583 50.0104 310.375 50.9688C309.188 51.9062 307.667 52.6667 305.812 53.25C306.083 54.125 306.542 55.2083 307.188 56.5C307.833 57.7917 308.583 59.1875 309.438 60.6875C310.292 62.1875 311.208 63.7396 312.188 65.3438C313.167 66.9479 314.125 68.5 315.062 70H299.062C298.167 67.9792 297.25 65.7188 296.312 63.2188C295.375 60.6979 294.625 57.9583 294.062 55H290.062V70H276.062V25.8125ZM292.438 48C294.021 48 295.354 47.7917 296.438 47.375C297.542 46.9583 298.438 46.4167 299.125 45.75C299.812 45.0833 300.302 44.3333 300.594 43.5C300.906 42.6667 301.062 41.8333 301.062 41C301.062 39.3542 300.833 38.0104 300.375 36.9688C299.917 35.9271 299.292 35.1146 298.5 34.5312C297.708 33.9271 296.792 33.5208 295.75 33.3125C294.708 33.1042 293.594 33 292.406 33H290.062V48H292.438ZM321.594 25.8125H335.594V70H321.594V25.8125ZM346.25 25.8125H363.312C366.271 25.8125 368.865 26 371.094 26.375C373.344 26.7292 375.292 27.2396 376.938 27.9062C378.583 28.5729 379.948 29.375 381.031 30.3125C382.135 31.25 383.01 32.2812 383.656 33.4062C384.323 34.5104 384.792 35.6979 385.062 36.9688C385.333 38.2396 385.469 39.5521 385.469 40.9062C385.469 42.0521 385.333 43.1979 385.062 44.3438C384.812 45.4896 384.375 46.5833 383.75 47.625C383.146 48.6667 382.333 49.6354 381.312 50.5312C380.292 51.4271 379.031 52.2083 377.531 52.875C376.052 53.5417 374.292 54.0625 372.25 54.4375C370.229 54.8125 367.896 55 365.25 55C364.875 55 364.406 55 363.844 55C363.281 54.9792 362.729 54.9479 362.188 54.9062L360.25 54.7812V70H346.25V25.8125ZM360.25 48H363.469C364.969 48 366.229 47.8229 367.25 47.4688C368.271 47.0938 369.094 46.5938 369.719 45.9688C370.344 45.3438 370.792 44.6042 371.062 43.75C371.333 42.8958 371.469 41.9792 371.469 41C371.469 39.4375 371.271 38.1458 370.875 37.125C370.479 36.1042 369.917 35.2917 369.188 34.6875C368.479 34.0625 367.635 33.625 366.656 33.375C365.677 33.125 364.615 33 363.469 33H360.25V48ZM398.188 70V36H388.188V25.8125H422.406V36H412.188V70H398.188Z" fill="white"/>
</svg>
