<svg width="467" height="96" viewBox="0 0 467 96" fill="none" xmlns="http://www.w3.org/2000/svg">
<rect width="467" height="96" rx="12" fill="#0D5CA6"/>
<path d="M42.875 70V36H32.875V25.8125H67.0938V36H56.875V70H42.875ZM80.375 70V54.8125L66.7188 25.8125H82.7812L88.1562 41.7188L93.0938 25.8125H106.719L94.375 54.4062V70H80.375ZM111.375 25.8125H128.438C131.396 25.8125 133.99 26 136.219 26.375C138.469 26.7292 140.417 27.2396 142.062 27.9062C143.708 28.5729 145.073 29.375 146.156 30.3125C147.26 31.25 148.135 32.2812 148.781 33.4062C149.448 34.5104 149.917 35.6979 150.188 36.9688C150.458 38.2396 150.594 39.5521 150.594 40.9062C150.594 42.0521 150.458 43.1979 150.188 44.3438C149.938 45.4896 149.5 46.5833 148.875 47.625C148.271 48.6667 147.458 49.6354 146.438 50.5312C145.417 51.4271 144.156 52.2083 142.656 52.875C141.177 53.5417 139.417 54.0625 137.375 54.4375C135.354 54.8125 133.021 55 130.375 55C130 55 129.531 55 128.969 55C128.406 54.9792 127.854 54.9479 127.312 54.9062L125.375 54.7812V70H111.375V25.8125ZM125.375 48H128.594C130.094 48 131.354 47.8229 132.375 47.4688C133.396 47.0938 134.219 46.5938 134.844 45.9688C135.469 45.3438 135.917 44.6042 136.188 43.75C136.458 42.8958 136.594 41.9792 136.594 41C136.594 39.4375 136.396 38.1458 136 37.125C135.604 36.1042 135.042 35.2917 134.312 34.6875C133.604 34.0625 132.76 33.625 131.781 33.375C130.802 33.125 129.74 33 128.594 33H125.375V48ZM158.344 25.8125H189.344V34H172.344V43.3438H187.344V51.3438H172.344V61H189.344V70H158.344V25.8125ZM231.094 37.2812C230.24 36.9062 229.24 36.5312 228.094 36.1562C226.969 35.7604 225.781 35.4062 224.531 35.0938C223.302 34.7812 222.052 34.5312 220.781 34.3438C219.51 34.1354 218.312 34.0312 217.188 34.0312C215.229 34.0312 213.698 34.2812 212.594 34.7812C211.49 35.2812 210.938 36.125 210.938 37.3125C210.938 37.875 211.125 38.375 211.5 38.8125C211.896 39.2292 212.448 39.625 213.156 40C213.865 40.3542 214.708 40.7083 215.688 41.0625C216.688 41.3958 217.792 41.75 219 42.125L221.281 42.8438C223.198 43.4271 224.917 44.1354 226.438 44.9688C227.958 45.7812 229.24 46.75 230.281 47.875C231.344 48.9792 232.156 50.25 232.719 51.6875C233.281 53.125 233.562 54.7604 233.562 56.5938C233.562 58.7396 233.219 60.6979 232.531 62.4688C231.865 64.2188 230.812 65.7188 229.375 66.9688C227.938 68.2188 226.094 69.1875 223.844 69.875C221.615 70.5625 218.927 70.9062 215.781 70.9062C212.99 70.9062 210.208 70.6771 207.438 70.2188C204.688 69.7604 201.906 68.9583 199.094 67.8125V57.5C201.781 58.875 204.385 59.8854 206.906 60.5312C209.448 61.1562 211.948 61.4688 214.406 61.4688C216.427 61.4688 217.896 61.1458 218.812 60.5C219.75 59.8542 220.219 58.9583 220.219 57.8125C220.219 57.125 220.042 56.5417 219.688 56.0625C219.354 55.5625 218.802 55.1042 218.031 54.6875C217.281 54.2708 216.292 53.8542 215.062 53.4375C213.833 53 212.344 52.5104 210.594 51.9688C208.844 51.4479 207.219 50.7917 205.719 50C204.24 49.2083 202.958 48.2604 201.875 47.1562C200.792 46.0312 199.938 44.7292 199.312 43.25C198.708 41.7708 198.406 40.0833 198.406 38.1875C198.406 36.2292 198.75 34.4375 199.438 32.8125C200.125 31.1875 201.177 29.8021 202.594 28.6562C204.01 27.4896 205.802 26.5833 207.969 25.9375C210.156 25.2917 212.75 24.9688 215.75 24.9688C216.938 24.9688 218.198 25.0208 219.531 25.125C220.865 25.2292 222.219 25.3854 223.594 25.5938C224.99 25.8021 226.365 26.0729 227.719 26.4062C229.073 26.7396 230.354 27.1354 231.562 27.5938L231.094 37.2812ZM240.688 48C240.688 44.4375 241.323 41.2396 242.594 38.4062C243.885 35.5521 245.625 33.1354 247.812 31.1562C250 29.1562 252.542 27.625 255.438 26.5625C258.333 25.5 261.406 24.9688 264.656 24.9688C266.927 24.9688 269.24 25.1875 271.594 25.625C273.948 26.0625 276.292 26.8542 278.625 28L276.688 38C274.854 37 273.042 36.25 271.25 35.75C269.458 35.25 267.812 35 266.312 35C264.5 35 262.875 35.3021 261.438 35.9062C260 36.4896 258.781 37.3438 257.781 38.4688C256.781 39.5938 256.01 40.9583 255.469 42.5625C254.948 44.1667 254.688 45.9792 254.688 48C254.688 50.0208 254.948 51.8333 255.469 53.4375C256.01 55.0417 256.781 56.4062 257.781 57.5312C258.781 58.6562 260 59.5208 261.438 60.125C262.875 60.7083 264.5 61 266.312 61C267.812 61 269.458 60.75 271.25 60.25C273.042 59.75 274.854 59 276.688 58L278.625 68C276.292 69.125 273.948 69.8854 271.594 70.2812C269.24 70.6979 266.927 70.9062 264.656 70.9062C261.406 70.9062 258.333 70.3854 255.438 69.3438C252.542 68.2812 250 66.7708 247.812 64.8125C245.625 62.8333 243.885 60.4271 242.594 57.5938C241.323 54.7604 240.688 51.5625 240.688 48ZM287.75 25.8125H307.625C310.771 25.8125 313.542 26.2292 315.938 27.0625C318.333 27.875 320.323 28.9583 321.906 30.3125C323.51 31.6458 324.719 33.1667 325.531 34.875C326.344 36.5625 326.75 38.2708 326.75 40C326.75 41.3542 326.615 42.6979 326.344 44.0312C326.073 45.3438 325.594 46.5938 324.906 47.7812C324.219 48.9479 323.271 50.0104 322.062 50.9688C320.875 51.9062 319.354 52.6667 317.5 53.25C317.771 54.125 318.229 55.2083 318.875 56.5C319.521 57.7917 320.271 59.1875 321.125 60.6875C321.979 62.1875 322.896 63.7396 323.875 65.3438C324.854 66.9479 325.812 68.5 326.75 70H310.75C309.854 67.9792 308.938 65.7188 308 63.2188C307.062 60.6979 306.312 57.9583 305.75 55H301.75V70H287.75V25.8125ZM304.125 48C305.708 48 307.042 47.7917 308.125 47.375C309.229 46.9583 310.125 46.4167 310.812 45.75C311.5 45.0833 311.99 44.3333 312.281 43.5C312.594 42.6667 312.75 41.8333 312.75 41C312.75 39.3542 312.521 38.0104 312.062 36.9688C311.604 35.9271 310.979 35.1146 310.188 34.5312C309.396 33.9271 308.479 33.5208 307.438 33.3125C306.396 33.1042 305.281 33 304.094 33H301.75V48H304.125ZM333.281 25.8125H347.281V70H333.281V25.8125ZM357.938 25.8125H375C377.958 25.8125 380.552 26 382.781 26.375C385.031 26.7292 386.979 27.2396 388.625 27.9062C390.271 28.5729 391.635 29.375 392.719 30.3125C393.823 31.25 394.698 32.2812 395.344 33.4062C396.01 34.5104 396.479 35.6979 396.75 36.9688C397.021 38.2396 397.156 39.5521 397.156 40.9062C397.156 42.0521 397.021 43.1979 396.75 44.3438C396.5 45.4896 396.062 46.5833 395.438 47.625C394.833 48.6667 394.021 49.6354 393 50.5312C391.979 51.4271 390.719 52.2083 389.219 52.875C387.74 53.5417 385.979 54.0625 383.938 54.4375C381.917 54.8125 379.583 55 376.938 55C376.562 55 376.094 55 375.531 55C374.969 54.9792 374.417 54.9479 373.875 54.9062L371.938 54.7812V70H357.938V25.8125ZM371.938 48H375.156C376.656 48 377.917 47.8229 378.938 47.4688C379.958 47.0938 380.781 46.5938 381.406 45.9688C382.031 45.3438 382.479 44.6042 382.75 43.75C383.021 42.8958 383.156 41.9792 383.156 41C383.156 39.4375 382.958 38.1458 382.562 37.125C382.167 36.1042 381.604 35.2917 380.875 34.6875C380.167 34.0625 379.323 33.625 378.344 33.375C377.365 33.125 376.302 33 375.156 33H371.938V48ZM409.875 70V36H399.875V25.8125H434.094V36H423.875V70H409.875Z" fill="white"/>
</svg>
