<svg width="339" height="96" viewBox="0 0 339 96" fill="none" xmlns="http://www.w3.org/2000/svg">
<rect width="339" height="96" rx="12" fill="#2544BD"/>
<path d="M34.8125 25.8125H51.8125L58.25 58.7812L65.8125 25.8125H76.8125L64.8438 70H45.8125L34.8125 25.8125ZM113.969 37.2812C113.115 36.9062 112.115 36.5312 110.969 36.1562C109.844 35.7604 108.656 35.4062 107.406 35.0938C106.177 34.7812 104.927 34.5312 103.656 34.3438C102.385 34.1354 101.188 34.0312 100.062 34.0312C98.1042 34.0312 96.5729 34.2812 95.4688 34.7812C94.3646 35.2812 93.8125 36.125 93.8125 37.3125C93.8125 37.875 94 38.375 94.375 38.8125C94.7708 39.2292 95.3229 39.625 96.0312 40C96.7396 40.3542 97.5833 40.7083 98.5625 41.0625C99.5625 41.3958 100.667 41.75 101.875 42.125L104.156 42.8438C106.073 43.4271 107.792 44.1354 109.312 44.9688C110.833 45.7812 112.115 46.75 113.156 47.875C114.219 48.9792 115.031 50.25 115.594 51.6875C116.156 53.125 116.438 54.7604 116.438 56.5938C116.438 58.7396 116.094 60.6979 115.406 62.4688C114.74 64.2188 113.688 65.7188 112.25 66.9688C110.812 68.2188 108.969 69.1875 106.719 69.875C104.49 70.5625 101.802 70.9062 98.6562 70.9062C95.8646 70.9062 93.0833 70.6771 90.3125 70.2188C87.5625 69.7604 84.7812 68.9583 81.9688 67.8125V57.5C84.6562 58.875 87.2604 59.8854 89.7812 60.5312C92.3229 61.1562 94.8229 61.4688 97.2812 61.4688C99.3021 61.4688 100.771 61.1458 101.688 60.5C102.625 59.8542 103.094 58.9583 103.094 57.8125C103.094 57.125 102.917 56.5417 102.562 56.0625C102.229 55.5625 101.677 55.1042 100.906 54.6875C100.156 54.2708 99.1667 53.8542 97.9375 53.4375C96.7083 53 95.2188 52.5104 93.4688 51.9688C91.7188 51.4479 90.0938 50.7917 88.5938 50C87.1146 49.2083 85.8333 48.2604 84.75 47.1562C83.6667 46.0312 82.8125 44.7292 82.1875 43.25C81.5833 41.7708 81.2812 40.0833 81.2812 38.1875C81.2812 36.2292 81.625 34.4375 82.3125 32.8125C83 31.1875 84.0521 29.8021 85.4688 28.6562C86.8854 27.4896 88.6771 26.5833 90.8438 25.9375C93.0312 25.2917 95.625 24.9688 98.625 24.9688C99.8125 24.9688 101.073 25.0208 102.406 25.125C103.74 25.2292 105.094 25.3854 106.469 25.5938C107.865 25.8021 109.24 26.0729 110.594 26.4062C111.948 26.7396 113.229 27.1354 114.438 27.5938L113.969 37.2812ZM123.562 48C123.562 44.4375 124.198 41.2396 125.469 38.4062C126.76 35.5521 128.5 33.1354 130.688 31.1562C132.875 29.1562 135.417 27.625 138.312 26.5625C141.208 25.5 144.281 24.9688 147.531 24.9688C149.802 24.9688 152.115 25.1875 154.469 25.625C156.823 26.0625 159.167 26.8542 161.5 28L159.562 38C157.729 37 155.917 36.25 154.125 35.75C152.333 35.25 150.688 35 149.188 35C147.375 35 145.75 35.3021 144.312 35.9062C142.875 36.4896 141.656 37.3438 140.656 38.4688C139.656 39.5938 138.885 40.9583 138.344 42.5625C137.823 44.1667 137.562 45.9792 137.562 48C137.562 50.0208 137.823 51.8333 138.344 53.4375C138.885 55.0417 139.656 56.4062 140.656 57.5312C141.656 58.6562 142.875 59.5208 144.312 60.125C145.75 60.7083 147.375 61 149.188 61C150.688 61 152.333 60.75 154.125 60.25C155.917 59.75 157.729 59 159.562 58L161.5 68C159.167 69.125 156.823 69.8854 154.469 70.2812C152.115 70.6979 149.802 70.9062 147.531 70.9062C144.281 70.9062 141.208 70.3854 138.312 69.3438C135.417 68.2812 132.875 66.7708 130.688 64.8125C128.5 62.8333 126.76 60.4271 125.469 57.5938C124.198 54.7604 123.562 51.5625 123.562 48ZM190.156 70.9062C187.427 70.9062 184.99 70.6042 182.844 70C180.698 69.4167 178.802 68.6042 177.156 67.5625C175.531 66.5 174.146 65.25 173 63.8125C171.875 62.3542 170.948 60.7812 170.219 59.0938C169.51 57.3854 168.99 55.5938 168.656 53.7188C168.344 51.8438 168.188 49.9375 168.188 48C168.188 46.0833 168.385 44.1875 168.781 42.3125C169.177 40.4167 169.771 38.6146 170.562 36.9062C171.354 35.1979 172.354 33.6146 173.562 32.1562C174.771 30.6979 176.188 29.4375 177.812 28.375C179.438 27.3125 181.271 26.4792 183.312 25.875C185.375 25.2708 187.656 24.9688 190.156 24.9688C192.656 24.9688 194.927 25.2708 196.969 25.875C199.031 26.4792 200.875 27.3125 202.5 28.375C204.146 29.4375 205.573 30.6979 206.781 32.1562C207.99 33.6146 208.99 35.1979 209.781 36.9062C210.594 38.6146 211.198 40.4167 211.594 42.3125C211.99 44.1875 212.188 46.0833 212.188 48C212.188 49.9375 212.021 51.8438 211.688 53.7188C211.354 55.5938 210.823 57.3854 210.094 59.0938C209.385 60.7812 208.458 62.3542 207.312 63.8125C206.167 65.25 204.781 66.5 203.156 67.5625C201.531 68.6042 199.635 69.4167 197.469 70C195.323 70.6042 192.885 70.9062 190.156 70.9062ZM182.188 48C182.188 50.5 182.365 52.6354 182.719 54.4062C183.094 56.1771 183.615 57.625 184.281 58.75C184.969 59.875 185.802 60.6979 186.781 61.2188C187.781 61.7396 188.906 62 190.156 62C191.406 62 192.521 61.7396 193.5 61.2188C194.5 60.6979 195.344 59.875 196.031 58.75C196.74 57.625 197.271 56.1771 197.625 54.4062C198 52.6354 198.188 50.5 198.188 48C198.188 45.5 198 43.3646 197.625 41.5938C197.271 39.8021 196.74 38.3438 196.031 37.2188C195.344 36.0729 194.5 35.2292 193.5 34.6875C192.521 34.1458 191.406 33.875 190.156 33.875C188.906 33.875 187.781 34.1458 186.781 34.6875C185.802 35.2292 184.969 36.0729 184.281 37.2188C183.615 38.3438 183.094 39.8021 182.719 41.5938C182.365 43.3646 182.188 45.5 182.188 48ZM220.438 70V25.8125H235.812C239.604 25.8125 243.01 26.2604 246.031 27.1562C249.052 28.0312 251.604 29.375 253.688 31.1875C255.792 32.9792 257.396 35.2396 258.5 37.9688C259.625 40.6771 260.188 43.8646 260.188 47.5312C260.188 50.3229 259.896 52.8229 259.312 55.0312C258.75 57.2188 257.938 59.1458 256.875 60.8125C255.833 62.4792 254.562 63.8958 253.062 65.0625C251.583 66.2083 249.938 67.1562 248.125 67.9062C246.312 68.6354 244.354 69.1667 242.25 69.5C240.167 69.8333 237.979 70 235.688 70H220.438ZM234.438 60H235.375C237 60 238.479 59.8542 239.812 59.5625C241.146 59.25 242.281 58.6458 243.219 57.75C244.177 56.8542 244.906 55.5938 245.406 53.9688C245.927 52.3438 246.188 50.1979 246.188 47.5312C246.188 45.1146 245.958 43.1042 245.5 41.5C245.042 39.875 244.365 38.5833 243.469 37.625C242.573 36.6458 241.469 35.9583 240.156 35.5625C238.844 35.1458 237.344 34.9375 235.656 34.9375H234.438V60ZM268.594 25.8125H299.594V34H282.594V43.3438H297.594V51.3438H282.594V61H299.594V70H268.594V25.8125Z" fill="white"/>
</svg>
